<svg class="railroad-diagram" width="809" height="112" viewBox="0 0 809 112" xmlns="http://www.w3.org/2000/svg" xmlns:xlink="http://www.w3.org/1999/xlink">
<g transform="translate(.5 .5)">
<g>
<path d="M20 54v20m0 -10h20"></path>
</g>
<path d="M40 64h10"></path>
<g>
<path d="M50 64h0"></path>
<path d="M759 64h0"></path>
<rect x="50" y="36" width="709" height="56" rx="10" ry="10" class="group-box"></rect>
<g>
<path d="M50 64h10"></path>
<path d="M749 64h10"></path>
<path d="M241.5 64h10"></path>
<g class="non-terminal ">
<path d="M60 64h0"></path>
<path d="M241.5 64h0"></path>
<rect x="60" y="53" width="181.5" height="22"></rect>
<text x="150.75" y="68">multiplicative_expr</text>
</g>
<g>
<path d="M251.5 64h0"></path>
<path d="M749 64h0"></path>
<path d="M251.5 64a10 10 0 0 0 10 -10v0a10 10 0 0 1 10 -10"></path>
<g>
<path d="M271.5 44h457.5"></path>
</g>
<path d="M729 44a10 10 0 0 1 10 10v0a10 10 0 0 0 10 10"></path>
<path d="M251.5 64h20"></path>
<g>
<path d="M271.5 64h0"></path>
<path d="M729 64h0"></path>
<path d="M281.5 64a10 10 0 0 0 -10 10v0a10 10 0 0 0 10 10"></path>
<g>
<path d="M281.5 84h437.5"></path>
</g>
<path d="M719 84a10 10 0 0 0 10 -10v0a10 10 0 0 0 -10 -10"></path>
<path d="M271.5 64h10"></path>
<path d="M719 64h10"></path>
<g>
<path d="M281.5 64h0"></path>
<path d="M719 64h0"></path>
<path d="M318.5 64h10"></path>
<g class="non-terminal ">
<path d="M281.5 64h0"></path>
<path d="M318.5 64h0"></path>
<rect x="281.5" y="53" width="37" height="22"></rect>
<text x="300" y="68">ws</text>
</g>
<path d="M328.5 64h10"></path>
<path d="M460.5 64h10"></path>
<g class="non-terminal ">
<path d="M338.5 64h0"></path>
<path d="M460.5 64h0"></path>
<rect x="338.5" y="53" width="122" height="22"></rect>
<text x="399.5" y="68">additive_opr</text>
</g>
<path d="M470.5 64h10"></path>
<path d="M517.5 64h10"></path>
<g class="non-terminal ">
<path d="M480.5 64h0"></path>
<path d="M517.5 64h0"></path>
<rect x="480.5" y="53" width="37" height="22"></rect>
<text x="499" y="68">ws</text>
</g>
<path d="M527.5 64h10"></path>
<g class="non-terminal ">
<path d="M537.5 64h0"></path>
<path d="M719 64h0"></path>
<rect x="537.5" y="53" width="181.5" height="22"></rect>
<text x="628.25" y="68">multiplicative_expr</text>
</g>
</g>
</g>
<path d="M729 64h20"></path>
</g>
</g>
<g class="comment ">
<path d="M50 28h0"></path>
<path d="M151 28h0"></path>
<text x="100.5" y="33" class="comment">additive_expr</text>
</g>
</g>
<path d="M759 64h10"></path>
<path d="M 769 64 h 20 m 0 -10 v 20"></path>
</g>
<style>
	svg {
		background-color: hsl(30,20%,95%);
	}
	path {
		stroke-width: 3;
		stroke: black;
		fill: rgba(0,0,0,0);
	}
	text {
		font: bold 14px monospace;
		text-anchor: middle;
		white-space: pre;
	}
	text.diagram-text {
		font-size: 12px;
	}
	text.diagram-arrow {
		font-size: 16px;
	}
	text.label {
		text-anchor: start;
	}
	text.comment {
		font: italic 12px monospace;
	}
	g.non-terminal text {
		/*font-style: italic;*/
	}
	rect {
		stroke-width: 3;
		stroke: black;
		fill: hsl(120,100%,90%);
	}
	rect.group-box {
		stroke: gray;
		stroke-dasharray: 10 5;
		fill: none;
	}
	path.diagram-text {
		stroke-width: 3;
		stroke: black;
		fill: white;
		cursor: help;
	}
	.decision path {
    fill: #ccc;
  }
	g.diagram-text:hover path.diagram-text {
		fill: #eee;
	}</style>
</svg>
