<svg class="railroad-diagram" width="645" height="163" viewBox="0 0 645 163" xmlns="http://www.w3.org/2000/svg" xmlns:xlink="http://www.w3.org/1999/xlink">
<g transform="translate(.5 .5)">
<g>
<path d="M20 54v20m0 -10h20"></path>
</g>
<path d="M40 64h10"></path>
<g>
<path d="M50 64h0"></path>
<path d="M595 64h0"></path>
<rect x="50" y="36" width="545" height="107" rx="10" ry="10" class="group-box"></rect>
<g>
<path d="M50 64h10"></path>
<path d="M585 64h10"></path>
<path d="M122.5 64h10"></path>
<g class="non-terminal ">
<path d="M60 64h0"></path>
<path d="M122.5 64h0"></path>
<rect x="60" y="53" width="62.5" height="22"></rect>
<text x="91.25" y="68">ident</text>
</g>
<path d="M132.5 64h10"></path>
<path d="M179.5 64h10"></path>
<g class="non-terminal ">
<path d="M142.5 64h0"></path>
<path d="M179.5 64h0"></path>
<rect x="142.5" y="53" width="37" height="22"></rect>
<text x="161" y="68">WS</text>
</g>
<g>
<path d="M189.5 64h0"></path>
<path d="M317.5 64h0"></path>
<path d="M189.5 64a10 10 0 0 0 10 -10v0a10 10 0 0 1 10 -10"></path>
<g>
<path d="M209.5 44h88"></path>
</g>
<path d="M297.5 44a10 10 0 0 1 10 10v0a10 10 0 0 0 10 10"></path>
<path d="M189.5 64h20"></path>
<g class="terminal ">
<path d="M209.5 64h0"></path>
<path d="M297.5 64h0"></path>
<rect x="209.5" y="53" width="88" height="22" rx="10" ry="10"></rect>
<text x="253.5" y="68">&#91;+\-*\/&#93;</text>
</g>
<path d="M297.5 64h20"></path>
</g>
<path d="M317.5 64h10"></path>
<path d="M373 64h10"></path>
<g class="terminal ">
<path d="M327.5 64h0"></path>
<path d="M373 64h0"></path>
<rect x="327.5" y="53" width="45.5" height="22" rx="10" ry="10"></rect>
<text x="350.25" y="68">"="</text>
</g>
<path d="M383 64h10"></path>
<path d="M430 64h10"></path>
<g class="non-terminal ">
<path d="M393 64h0"></path>
<path d="M430 64h0"></path>
<rect x="393" y="53" width="37" height="22"></rect>
<text x="411.5" y="68">WS</text>
</g>
<g>
<path d="M440 64h0"></path>
<path d="M585 64h0"></path>
<path d="M440 64h20"></path>
<g class="non-terminal ">
<path d="M460 64h12.75"></path>
<path d="M552.25 64h12.75"></path>
<rect x="472.75" y="53" width="79.5" height="22"></rect>
<text x="512.5" y="68">literal</text>
</g>
<path d="M565 64h20"></path>
<path d="M440 64a10 10 0 0 1 10 10v10a10 10 0 0 0 10 10"></path>
<g class="non-terminal ">
<path d="M460 94h21.25"></path>
<path d="M543.75 94h21.25"></path>
<rect x="481.25" y="83" width="62.5" height="22"></rect>
<text x="512.5" y="98">ident</text>
</g>
<path d="M565 94a10 10 0 0 0 10 -10v-10a10 10 0 0 1 10 -10"></path>
<path d="M440 64a10 10 0 0 1 10 10v40a10 10 0 0 0 10 10"></path>
<g class="non-terminal ">
<path d="M460 124h0"></path>
<path d="M565 124h0"></path>
<rect x="460" y="113" width="105" height="22"></rect>
<text x="512.5" y="128">expression</text>
</g>
<path d="M565 124a10 10 0 0 0 10 -10v-40a10 10 0 0 1 10 -10"></path>
</g>
</g>
<g class="comment ">
<path d="M50 28h0"></path>
<path d="M102 28h0"></path>
<text x="76" y="33" class="comment">assign</text>
</g>
</g>
<path d="M595 64h10"></path>
<path d="M 605 64 h 20 m 0 -10 v 20"></path>
</g>
<style>
	svg {
		background-color: hsl(30,20%,95%);
	}
	path {
		stroke-width: 3;
		stroke: black;
		fill: rgba(0,0,0,0);
	}
	text {
		font: bold 14px monospace;
		text-anchor: middle;
		white-space: pre;
	}
	text.diagram-text {
		font-size: 12px;
	}
	text.diagram-arrow {
		font-size: 16px;
	}
	text.label {
		text-anchor: start;
	}
	text.comment {
		font: italic 12px monospace;
	}
	g.non-terminal text {
		/*font-style: italic;*/
	}
	rect {
		stroke-width: 3;
		stroke: black;
		fill: hsl(120,100%,90%);
	}
	rect.group-box {
		stroke: gray;
		stroke-dasharray: 10 5;
		fill: none;
	}
	path.diagram-text {
		stroke-width: 3;
		stroke: black;
		fill: white;
		cursor: help;
	}
	.decision path {
    fill: #ccc;
  }
	g.diagram-text:hover path.diagram-text {
		fill: #eee;
	}</style>
</svg>
