<svg class="railroad-diagram" width="623" height="94" viewBox="0 0 623 94" xmlns="http://www.w3.org/2000/svg" xmlns:xlink="http://www.w3.org/1999/xlink">
<g transform="translate(.5 .5)">
<g>
<path d="M20 45v20m0 -10h20"></path>
</g>
<path d="M40 55h10"></path>
<g>
<path d="M50 55h0"></path>
<path d="M573 55h0"></path>
<rect x="50" y="36" width="523" height="38" rx="10" ry="10" class="group-box"></rect>
<g>
<path d="M50 55h10"></path>
<path d="M563 55h10"></path>
<path d="M165 55h10"></path>
<g class="non-terminal ">
<path d="M60 55h0"></path>
<path d="M165 55h0"></path>
<rect x="60" y="44" width="105" height="22"></rect>
<text x="112.5" y="59">expression</text>
</g>
<path d="M175 55h10"></path>
<path d="M222 55h10"></path>
<g class="non-terminal ">
<path d="M185 55h0"></path>
<path d="M222 55h0"></path>
<rect x="185" y="44" width="37" height="22"></rect>
<text x="203.5" y="59">ws</text>
</g>
<path d="M232 55h10"></path>
<path d="M381 55h10"></path>
<g class="non-terminal ">
<path d="M242 55h0"></path>
<path d="M381 55h0"></path>
<rect x="242" y="44" width="139" height="22"></rect>
<text x="311.5" y="59">comparison_opr</text>
</g>
<path d="M391 55h10"></path>
<path d="M438 55h10"></path>
<g class="non-terminal ">
<path d="M401 55h0"></path>
<path d="M438 55h0"></path>
<rect x="401" y="44" width="37" height="22"></rect>
<text x="419.5" y="59">ws</text>
</g>
<path d="M448 55h10"></path>
<g class="non-terminal ">
<path d="M458 55h0"></path>
<path d="M563 55h0"></path>
<rect x="458" y="44" width="105" height="22"></rect>
<text x="510.5" y="59">expression</text>
</g>
</g>
<g class="comment ">
<path d="M50 28h0"></path>
<path d="M130 28h0"></path>
<text x="90" y="33" class="comment">comparison</text>
</g>
</g>
<path d="M573 55h10"></path>
<path d="M 583 55 h 20 m 0 -10 v 20"></path>
</g>
<style>
	svg {
		background-color: hsl(30,20%,95%);
	}
	path {
		stroke-width: 3;
		stroke: black;
		fill: rgba(0,0,0,0);
	}
	text {
		font: bold 14px monospace;
		text-anchor: middle;
		white-space: pre;
	}
	text.diagram-text {
		font-size: 12px;
	}
	text.diagram-arrow {
		font-size: 16px;
	}
	text.label {
		text-anchor: start;
	}
	text.comment {
		font: italic 12px monospace;
	}
	g.non-terminal text {
		/*font-style: italic;*/
	}
	rect {
		stroke-width: 3;
		stroke: black;
		fill: hsl(120,100%,90%);
	}
	rect.group-box {
		stroke: gray;
		stroke-dasharray: 10 5;
		fill: none;
	}
	path.diagram-text {
		stroke-width: 3;
		stroke: black;
		fill: white;
		cursor: help;
	}
	.decision path {
    fill: #ccc;
  }
	g.diagram-text:hover path.diagram-text {
		fill: #eee;
	}</style>
</svg>
