<svg class="railroad-diagram" width="330" height="124" viewBox="0 0 330 124" xmlns="http://www.w3.org/2000/svg" xmlns:xlink="http://www.w3.org/1999/xlink">
<g transform="translate(.5 .5)">
<g>
<path d="M20 45v20m0 -10h20"></path>
</g>
<path d="M40 55h10"></path>
<g>
<path d="M50 55h0"></path>
<path d="M280 55h0"></path>
<rect x="50" y="36" width="230" height="68" rx="10" ry="10" class="group-box"></rect>
<g>
<path d="M50 55h0"></path>
<path d="M280 55h0"></path>
<path d="M50 55h20"></path>
<g class="non-terminal ">
<path d="M70 55h0"></path>
<path d="M260 55h0"></path>
<rect x="70" y="44" width="190" height="22"></rect>
<text x="165" y="59">function_declaration</text>
</g>
<path d="M260 55h20"></path>
<path d="M50 55a10 10 0 0 1 10 10v10a10 10 0 0 0 10 10"></path>
<g class="non-terminal ">
<path d="M70 85h0"></path>
<path d="M260 85h0"></path>
<rect x="70" y="74" width="190" height="22"></rect>
<text x="165" y="89">variable_declaration</text>
</g>
<path d="M260 85a10 10 0 0 0 10 -10v-10a10 10 0 0 1 10 -10"></path>
</g>
<g class="comment ">
<path d="M50 28h0"></path>
<path d="M137 28h0"></path>
<text x="93.5" y="33" class="comment">declaration</text>
</g>
</g>
<path d="M280 55h10"></path>
<path d="M 290 55 h 20 m 0 -10 v 20"></path>
</g>
<style>
	svg {
		background-color: hsl(30,20%,95%);
	}
	path {
		stroke-width: 3;
		stroke: black;
		fill: rgba(0,0,0,0);
	}
	text {
		font: bold 14px monospace;
		text-anchor: middle;
		white-space: pre;
	}
	text.diagram-text {
		font-size: 12px;
	}
	text.diagram-arrow {
		font-size: 16px;
	}
	text.label {
		text-anchor: start;
	}
	text.comment {
		font: italic 12px monospace;
	}
	g.non-terminal text {
		/*font-style: italic;*/
	}
	rect {
		stroke-width: 3;
		stroke: black;
		fill: hsl(120,100%,90%);
	}
	rect.group-box {
		stroke: gray;
		stroke-dasharray: 10 5;
		fill: none;
	}
	path.diagram-text {
		stroke-width: 3;
		stroke: black;
		fill: white;
		cursor: help;
	}
	.decision path {
    fill: #ccc;
  }
	g.diagram-text:hover path.diagram-text {
		fill: #eee;
	}</style>
</svg>
