<svg class="railroad-diagram" width="299" height="94" viewBox="0 0 299 94" xmlns="http://www.w3.org/2000/svg" xmlns:xlink="http://www.w3.org/1999/xlink">
<g transform="translate(.5 .5)">
<g>
<path d="M20 45v20m0 -10h20"></path>
</g>
<path d="M40 55h10"></path>
<g>
<path d="M50 55h0"></path>
<path d="M249 55h0"></path>
<rect x="50" y="36" width="199" height="38" rx="10" ry="10" class="group-box"></rect>
<g>
<path d="M50 55h10"></path>
<path d="M239 55h10"></path>
<path d="M114 55h10"></path>
<g class="terminal ">
<path d="M60 55h0"></path>
<path d="M114 55h0"></path>
<rect x="60" y="44" width="54" height="22" rx="10" ry="10"></rect>
<text x="87" y="59">"\\"</text>
</g>
<path d="M124 55h10"></path>
<g class="terminal ">
<path d="M134 55h0"></path>
<path d="M239 55h0"></path>
<rect x="134" y="44" width="105" height="22" rx="10" ry="10"></rect>
<text x="186.5" y="59">&#91;tbrn"'\\&#93;</text>
</g>
</g>
<g class="comment ">
<path d="M50 28h0"></path>
<path d="M151 28h0"></path>
<text x="100.5" y="33" class="comment">escape_string</text>
</g>
</g>
<path d="M249 55h10"></path>
<path d="M 259 55 h 20 m 0 -10 v 20"></path>
</g>
<style>
	svg {
		background-color: hsl(30,20%,95%);
	}
	path {
		stroke-width: 3;
		stroke: black;
		fill: rgba(0,0,0,0);
	}
	text {
		font: bold 14px monospace;
		text-anchor: middle;
		white-space: pre;
	}
	text.diagram-text {
		font-size: 12px;
	}
	text.diagram-arrow {
		font-size: 16px;
	}
	text.label {
		text-anchor: start;
	}
	text.comment {
		font: italic 12px monospace;
	}
	g.non-terminal text {
		/*font-style: italic;*/
	}
	rect {
		stroke-width: 3;
		stroke: black;
		fill: hsl(120,100%,90%);
	}
	rect.group-box {
		stroke: gray;
		stroke-dasharray: 10 5;
		fill: none;
	}
	path.diagram-text {
		stroke-width: 3;
		stroke: black;
		fill: white;
		cursor: help;
	}
	.decision path {
    fill: #ccc;
  }
	g.diagram-text:hover path.diagram-text {
		fill: #eee;
	}</style>
</svg>
