<svg class="railroad-diagram" width="774.5" height="94" viewBox="0 0 774.5 94" xmlns="http://www.w3.org/2000/svg" xmlns:xlink="http://www.w3.org/1999/xlink">
<g transform="translate(.5 .5)">
<g>
<path d="M20 45v20m0 -10h20"></path>
</g>
<path d="M40 55h10"></path>
<g>
<path d="M50 55h0"></path>
<path d="M724.5 55h0"></path>
<rect x="50" y="36" width="674.5" height="38" rx="10" ry="10" class="group-box"></rect>
<g>
<path d="M50 55h10"></path>
<path d="M714.5 55h10"></path>
<path d="M122.5 55h10"></path>
<g class="terminal ">
<path d="M60 55h0"></path>
<path d="M122.5 55h0"></path>
<rect x="60" y="44" width="62.5" height="22" rx="10" ry="10"></rect>
<text x="91.25" y="59">"for"</text>
</g>
<path d="M132.5 55h10"></path>
<path d="M179.5 55h10"></path>
<g class="non-terminal ">
<path d="M142.5 55h0"></path>
<path d="M179.5 55h0"></path>
<rect x="142.5" y="44" width="37" height="22"></rect>
<text x="161" y="59">WS</text>
</g>
<path d="M189.5 55h10"></path>
<path d="M262 55h10"></path>
<g class="non-terminal ">
<path d="M199.5 55h0"></path>
<path d="M262 55h0"></path>
<rect x="199.5" y="44" width="62.5" height="22"></rect>
<text x="230.75" y="59">ident</text>
</g>
<path d="M272 55h10"></path>
<path d="M319 55h10"></path>
<g class="non-terminal ">
<path d="M282 55h0"></path>
<path d="M319 55h0"></path>
<rect x="282" y="44" width="37" height="22"></rect>
<text x="300.5" y="59">WS</text>
</g>
<path d="M329 55h10"></path>
<path d="M393 55h10"></path>
<g class="terminal ">
<path d="M339 55h0"></path>
<path d="M393 55h0"></path>
<rect x="339" y="44" width="54" height="22" rx="10" ry="10"></rect>
<text x="366" y="59">"in"</text>
</g>
<path d="M403 55h10"></path>
<path d="M450 55h10"></path>
<g class="non-terminal ">
<path d="M413 55h0"></path>
<path d="M450 55h0"></path>
<rect x="413" y="44" width="37" height="22"></rect>
<text x="431.5" y="59">WS</text>
</g>
<path d="M460 55h10"></path>
<path d="M575 55h10"></path>
<g class="non-terminal ">
<path d="M470 55h0"></path>
<path d="M575 55h0"></path>
<rect x="470" y="44" width="105" height="22"></rect>
<text x="522.5" y="59">range_expr</text>
</g>
<path d="M585 55h10"></path>
<path d="M632 55h10"></path>
<g class="non-terminal ">
<path d="M595 55h0"></path>
<path d="M632 55h0"></path>
<rect x="595" y="44" width="37" height="22"></rect>
<text x="613.5" y="59">ws</text>
</g>
<path d="M642 55h10"></path>
<g class="non-terminal ">
<path d="M652 55h0"></path>
<path d="M714.5 55h0"></path>
<rect x="652" y="44" width="62.5" height="22"></rect>
<text x="683.25" y="59">block</text>
</g>
</g>
<g class="comment ">
<path d="M50 28h0"></path>
<path d="M116 28h0"></path>
<text x="83" y="33" class="comment">for_stmt</text>
</g>
</g>
<path d="M724.5 55h10"></path>
<path d="M 734.5 55 h 20 m 0 -10 v 20"></path>
</g>
<style>
	svg {
		background-color: hsl(30,20%,95%);
	}
	path {
		stroke-width: 3;
		stroke: black;
		fill: rgba(0,0,0,0);
	}
	text {
		font: bold 14px monospace;
		text-anchor: middle;
		white-space: pre;
	}
	text.diagram-text {
		font-size: 12px;
	}
	text.diagram-arrow {
		font-size: 16px;
	}
	text.label {
		text-anchor: start;
	}
	text.comment {
		font: italic 12px monospace;
	}
	g.non-terminal text {
		/*font-style: italic;*/
	}
	rect {
		stroke-width: 3;
		stroke: black;
		fill: hsl(120,100%,90%);
	}
	rect.group-box {
		stroke: gray;
		stroke-dasharray: 10 5;
		fill: none;
	}
	path.diagram-text {
		stroke-width: 3;
		stroke: black;
		fill: white;
		cursor: help;
	}
	.decision path {
    fill: #ccc;
  }
	g.diagram-text:hover path.diagram-text {
		fill: #eee;
	}</style>
</svg>
