<svg class="railroad-diagram" width="763.5" height="94" viewBox="0 0 763.5 94" xmlns="http://www.w3.org/2000/svg" xmlns:xlink="http://www.w3.org/1999/xlink">
<g transform="translate(.5 .5)">
<g>
<path d="M20 45v20m0 -10h20"></path>
</g>
<path d="M40 55h10"></path>
<g>
<path d="M50 55h0"></path>
<path d="M713.5 55h0"></path>
<rect x="50" y="36" width="663.5" height="38" rx="10" ry="10" class="group-box"></rect>
<g>
<path d="M50 55h10"></path>
<path d="M703.5 55h10"></path>
<path d="M122.5 55h10"></path>
<g class="terminal ">
<path d="M60 55h0"></path>
<path d="M122.5 55h0"></path>
<rect x="60" y="44" width="62.5" height="22" rx="10" ry="10"></rect>
<text x="91.25" y="59">"fun"</text>
</g>
<path d="M132.5 55h10"></path>
<path d="M179.5 55h10"></path>
<g class="non-terminal ">
<path d="M142.5 55h0"></path>
<path d="M179.5 55h0"></path>
<rect x="142.5" y="44" width="37" height="22"></rect>
<text x="161" y="59">WS</text>
</g>
<path d="M189.5 55h10"></path>
<path d="M262 55h10"></path>
<g class="non-terminal ">
<path d="M199.5 55h0"></path>
<path d="M262 55h0"></path>
<rect x="199.5" y="44" width="62.5" height="22"></rect>
<text x="230.75" y="59">ident</text>
</g>
<path d="M272 55h10"></path>
<path d="M319 55h10"></path>
<g class="non-terminal ">
<path d="M282 55h0"></path>
<path d="M319 55h0"></path>
<rect x="282" y="44" width="37" height="22"></rect>
<text x="300.5" y="59">ws</text>
</g>
<path d="M329 55h10"></path>
<path d="M384.5 55h10"></path>
<g class="terminal ">
<path d="M339 55h0"></path>
<path d="M384.5 55h0"></path>
<rect x="339" y="44" width="45.5" height="22" rx="10" ry="10"></rect>
<text x="361.75" y="59">"("</text>
</g>
<path d="M394.5 55h10"></path>
<path d="M441.5 55h10"></path>
<g class="non-terminal ">
<path d="M404.5 55h0"></path>
<path d="M441.5 55h0"></path>
<rect x="404.5" y="44" width="37" height="22"></rect>
<text x="423" y="59">ws</text>
</g>
<path d="M451.5 55h10"></path>
<path d="M498.5 55h10"></path>
<g class="non-terminal ">
<path d="M461.5 55h0"></path>
<path d="M498.5 55h0"></path>
<rect x="461.5" y="44" width="37" height="22"></rect>
<text x="480" y="59">ws</text>
</g>
<path d="M508.5 55h10"></path>
<path d="M564 55h10"></path>
<g class="terminal ">
<path d="M518.5 55h0"></path>
<path d="M564 55h0"></path>
<rect x="518.5" y="44" width="45.5" height="22" rx="10" ry="10"></rect>
<text x="541.25" y="59">")"</text>
</g>
<path d="M574 55h10"></path>
<path d="M621 55h10"></path>
<g class="non-terminal ">
<path d="M584 55h0"></path>
<path d="M621 55h0"></path>
<rect x="584" y="44" width="37" height="22"></rect>
<text x="602.5" y="59">ws</text>
</g>
<path d="M631 55h10"></path>
<g class="non-terminal ">
<path d="M641 55h0"></path>
<path d="M703.5 55h0"></path>
<rect x="641" y="44" width="62.5" height="22"></rect>
<text x="672.25" y="59">block</text>
</g>
</g>
<g class="comment ">
<path d="M50 28h0"></path>
<path d="M200 28h0"></path>
<text x="125" y="33" class="comment">function_declaration</text>
</g>
</g>
<path d="M713.5 55h10"></path>
<path d="M 723.5 55 h 20 m 0 -10 v 20"></path>
</g>
<style>
	svg {
		background-color: hsl(30,20%,95%);
	}
	path {
		stroke-width: 3;
		stroke: black;
		fill: rgba(0,0,0,0);
	}
	text {
		font: bold 14px monospace;
		text-anchor: middle;
		white-space: pre;
	}
	text.diagram-text {
		font-size: 12px;
	}
	text.diagram-arrow {
		font-size: 16px;
	}
	text.label {
		text-anchor: start;
	}
	text.comment {
		font: italic 12px monospace;
	}
	g.non-terminal text {
		/*font-style: italic;*/
	}
	rect {
		stroke-width: 3;
		stroke: black;
		fill: hsl(120,100%,90%);
	}
	rect.group-box {
		stroke: gray;
		stroke-dasharray: 10 5;
		fill: none;
	}
	path.diagram-text {
		stroke-width: 3;
		stroke: black;
		fill: white;
		cursor: help;
	}
	.decision path {
    fill: #ccc;
  }
	g.diagram-text:hover path.diagram-text {
		fill: #eee;
	}</style>
</svg>
