<svg class="railroad-diagram" width="561" height="94" viewBox="0 0 561 94" xmlns="http://www.w3.org/2000/svg" xmlns:xlink="http://www.w3.org/1999/xlink">
<g transform="translate(.5 .5)">
<g>
<path d="M20 45v20m0 -10h20"></path>
</g>
<path d="M40 55h10"></path>
<g>
<path d="M50 55h0"></path>
<path d="M511 55h0"></path>
<rect x="50" y="36" width="461" height="38" rx="10" ry="10" class="group-box"></rect>
<g>
<path d="M50 55h10"></path>
<path d="M501 55h10"></path>
<path d="M122.5 55h10"></path>
<g class="non-terminal ">
<path d="M60 55h0"></path>
<path d="M122.5 55h0"></path>
<rect x="60" y="44" width="62.5" height="22"></rect>
<text x="91.25" y="59">ident</text>
</g>
<path d="M132.5 55h10"></path>
<path d="M188 55h10"></path>
<g class="terminal ">
<path d="M142.5 55h0"></path>
<path d="M188 55h0"></path>
<rect x="142.5" y="44" width="45.5" height="22" rx="10" ry="10"></rect>
<text x="165.25" y="59">"("</text>
</g>
<path d="M198 55h10"></path>
<path d="M245 55h10"></path>
<g class="non-terminal ">
<path d="M208 55h0"></path>
<path d="M245 55h0"></path>
<rect x="208" y="44" width="37" height="22"></rect>
<text x="226.5" y="59">ws</text>
</g>
<path d="M255 55h10"></path>
<path d="M378.5 55h10"></path>
<g class="non-terminal ">
<path d="M265 55h0"></path>
<path d="M378.5 55h0"></path>
<rect x="265" y="44" width="113.5" height="22"></rect>
<text x="321.75" y="59">func_params</text>
</g>
<path d="M388.5 55h10"></path>
<path d="M435.5 55h10"></path>
<g class="non-terminal ">
<path d="M398.5 55h0"></path>
<path d="M435.5 55h0"></path>
<rect x="398.5" y="44" width="37" height="22"></rect>
<text x="417" y="59">ws</text>
</g>
<path d="M445.5 55h10"></path>
<g class="terminal ">
<path d="M455.5 55h0"></path>
<path d="M501 55h0"></path>
<rect x="455.5" y="44" width="45.5" height="22" rx="10" ry="10"></rect>
<text x="478.25" y="59">")"</text>
</g>
</g>
<g class="comment ">
<path d="M50 28h0"></path>
<path d="M151 28h0"></path>
<text x="100.5" y="33" class="comment">function_call</text>
</g>
</g>
<path d="M511 55h10"></path>
<path d="M 521 55 h 20 m 0 -10 v 20"></path>
</g>
<style>
	svg {
		background-color: hsl(30,20%,95%);
	}
	path {
		stroke-width: 3;
		stroke: black;
		fill: rgba(0,0,0,0);
	}
	text {
		font: bold 14px monospace;
		text-anchor: middle;
		white-space: pre;
	}
	text.diagram-text {
		font-size: 12px;
	}
	text.diagram-arrow {
		font-size: 16px;
	}
	text.label {
		text-anchor: start;
	}
	text.comment {
		font: italic 12px monospace;
	}
	g.non-terminal text {
		/*font-style: italic;*/
	}
	rect {
		stroke-width: 3;
		stroke: black;
		fill: hsl(120,100%,90%);
	}
	rect.group-box {
		stroke: gray;
		stroke-dasharray: 10 5;
		fill: none;
	}
	path.diagram-text {
		stroke-width: 3;
		stroke: black;
		fill: white;
		cursor: help;
	}
	.decision path {
    fill: #ccc;
  }
	g.diagram-text:hover path.diagram-text {
		fill: #eee;
	}</style>
</svg>
