<svg class="railroad-diagram" width="408.5" height="112" viewBox="0 0 408.5 112" xmlns="http://www.w3.org/2000/svg" xmlns:xlink="http://www.w3.org/1999/xlink">
<g transform="translate(.5 .5)">
<g>
<path d="M20 54v20m0 -10h20"></path>
</g>
<path d="M40 64h10"></path>
<g>
<path d="M50 64h0"></path>
<path d="M358.5 64h0"></path>
<rect x="50" y="36" width="308.5" height="56" rx="10" ry="10" class="group-box"></rect>
<g>
<path d="M50 64h10"></path>
<path d="M348.5 64h10"></path>
<path d="M156.5 64h10"></path>
<g class="terminal ">
<path d="M60 64h0"></path>
<path d="M156.5 64h0"></path>
<rect x="60" y="53" width="96.5" height="22" rx="10" ry="10"></rect>
<text x="108.25" y="68">&#91;a-zA-Z_&#93;</text>
</g>
<g>
<path d="M166.5 64h0"></path>
<path d="M348.5 64h0"></path>
<path d="M166.5 64a10 10 0 0 0 10 -10v0a10 10 0 0 1 10 -10"></path>
<g>
<path d="M186.5 44h142"></path>
</g>
<path d="M328.5 44a10 10 0 0 1 10 10v0a10 10 0 0 0 10 10"></path>
<path d="M166.5 64h20"></path>
<g>
<path d="M186.5 64h0"></path>
<path d="M328.5 64h0"></path>
<path d="M196.5 64a10 10 0 0 0 -10 10v0a10 10 0 0 0 10 10"></path>
<g>
<path d="M196.5 84h122"></path>
</g>
<path d="M318.5 84a10 10 0 0 0 10 -10v0a10 10 0 0 0 -10 -10"></path>
<path d="M186.5 64h10"></path>
<path d="M318.5 64h10"></path>
<g class="terminal ">
<path d="M196.5 64h0"></path>
<path d="M318.5 64h0"></path>
<rect x="196.5" y="53" width="122" height="22" rx="10" ry="10"></rect>
<text x="257.5" y="68">&#91;a-zA-Z_0-9&#93;</text>
</g>
</g>
<path d="M328.5 64h20"></path>
</g>
</g>
<g class="comment ">
<path d="M50 28h0"></path>
<path d="M95 28h0"></path>
<text x="72.5" y="33" class="comment">ident</text>
</g>
</g>
<path d="M358.5 64h10"></path>
<path d="M 368.5 64 h 20 m 0 -10 v 20"></path>
</g>
<style>
	svg {
		background-color: hsl(30,20%,95%);
	}
	path {
		stroke-width: 3;
		stroke: black;
		fill: rgba(0,0,0,0);
	}
	text {
		font: bold 14px monospace;
		text-anchor: middle;
		white-space: pre;
	}
	text.diagram-text {
		font-size: 12px;
	}
	text.diagram-arrow {
		font-size: 16px;
	}
	text.label {
		text-anchor: start;
	}
	text.comment {
		font: italic 12px monospace;
	}
	g.non-terminal text {
		/*font-style: italic;*/
	}
	rect {
		stroke-width: 3;
		stroke: black;
		fill: hsl(120,100%,90%);
	}
	rect.group-box {
		stroke: gray;
		stroke-dasharray: 10 5;
		fill: none;
	}
	path.diagram-text {
		stroke-width: 3;
		stroke: black;
		fill: white;
		cursor: help;
	}
	.decision path {
    fill: #ccc;
  }
	g.diagram-text:hover path.diagram-text {
		fill: #eee;
	}</style>
</svg>
