<svg class="railroad-diagram" width="325" height="133" viewBox="0 0 325 133" xmlns="http://www.w3.org/2000/svg" xmlns:xlink="http://www.w3.org/1999/xlink">
<g transform="translate(.5 .5)">
<g>
<path d="M20 54v20m0 -10h20"></path>
</g>
<path d="M40 64h10"></path>
<g>
<path d="M50 64h0"></path>
<path d="M275 64h0"></path>
<rect x="50" y="36" width="225" height="77" rx="10" ry="10" class="group-box"></rect>
<g>
<path d="M50 64h10"></path>
<path d="M265 64h10"></path>
<g>
<path d="M60 64h0"></path>
<path d="M162.5 64h0"></path>
<path d="M60 64a10 10 0 0 0 10 -10v0a10 10 0 0 1 10 -10"></path>
<g>
<path d="M80 44h62.5"></path>
</g>
<path d="M142.5 44a10 10 0 0 1 10 10v0a10 10 0 0 0 10 10"></path>
<path d="M60 64h20"></path>
<g class="terminal ">
<path d="M80 64h0"></path>
<path d="M142.5 64h0"></path>
<rect x="80" y="53" width="62.5" height="22" rx="10" ry="10"></rect>
<text x="111.25" y="68">&#91;+\-&#93;</text>
</g>
<path d="M142.5 64h20"></path>
</g>
<g>
<path d="M162.5 64h0"></path>
<path d="M265 64h0"></path>
<path d="M162.5 64h20"></path>
<g class="non-terminal ">
<path d="M182.5 64h8.5"></path>
<path d="M236.5 64h8.5"></path>
<rect x="191" y="53" width="45.5" height="22"></rect>
<text x="213.75" y="68">int</text>
</g>
<path d="M245 64h20"></path>
<path d="M162.5 64a10 10 0 0 1 10 10v10a10 10 0 0 0 10 10"></path>
<g class="non-terminal ">
<path d="M182.5 94h0"></path>
<path d="M245 94h0"></path>
<rect x="182.5" y="83" width="62.5" height="22"></rect>
<text x="213.75" y="98">float</text>
</g>
<path d="M245 94a10 10 0 0 0 10 -10v-10a10 10 0 0 1 10 -10"></path>
</g>
</g>
<g class="comment ">
<path d="M50 28h0"></path>
<path d="M102 28h0"></path>
<text x="76" y="33" class="comment">number</text>
</g>
</g>
<path d="M275 64h10"></path>
<path d="M 285 64 h 20 m 0 -10 v 20"></path>
</g>
<style>
	svg {
		background-color: hsl(30,20%,95%);
	}
	path {
		stroke-width: 3;
		stroke: black;
		fill: rgba(0,0,0,0);
	}
	text {
		font: bold 14px monospace;
		text-anchor: middle;
		white-space: pre;
	}
	text.diagram-text {
		font-size: 12px;
	}
	text.diagram-arrow {
		font-size: 16px;
	}
	text.label {
		text-anchor: start;
	}
	text.comment {
		font: italic 12px monospace;
	}
	g.non-terminal text {
		/*font-style: italic;*/
	}
	rect {
		stroke-width: 3;
		stroke: black;
		fill: hsl(120,100%,90%);
	}
	rect.group-box {
		stroke: gray;
		stroke-dasharray: 10 5;
		fill: none;
	}
	path.diagram-text {
		stroke-width: 3;
		stroke: black;
		fill: white;
		cursor: help;
	}
	.decision path {
    fill: #ccc;
  }
	g.diagram-text:hover path.diagram-text {
		fill: #eee;
	}</style>
</svg>
