<svg class="railroad-diagram" width="355" height="112" viewBox="0 0 355 112" xmlns="http://www.w3.org/2000/svg" xmlns:xlink="http://www.w3.org/1999/xlink">
<g transform="translate(.5 .5)">
<g>
<path d="M20 54v20m0 -10h20"></path>
</g>
<path d="M40 64h10"></path>
<g>
<path d="M50 64h0"></path>
<path d="M305 64h0"></path>
<rect x="50" y="36" width="255" height="56" rx="10" ry="10" class="group-box"></rect>
<g>
<path d="M50 64h10"></path>
<path d="M295 64h10"></path>
<path d="M114 64h10"></path>
<g class="non-terminal ">
<path d="M60 64h0"></path>
<path d="M114 64h0"></path>
<rect x="60" y="53" width="54" height="22"></rect>
<text x="87" y="68">stmt</text>
</g>
<g>
<path d="M124 64h0"></path>
<path d="M295 64h0"></path>
<path d="M124 64a10 10 0 0 0 10 -10v0a10 10 0 0 1 10 -10"></path>
<g>
<path d="M144 44h131"></path>
</g>
<path d="M275 44a10 10 0 0 1 10 10v0a10 10 0 0 0 10 10"></path>
<path d="M124 64h20"></path>
<g>
<path d="M144 64h0"></path>
<path d="M275 64h0"></path>
<path d="M154 64a10 10 0 0 0 -10 10v0a10 10 0 0 0 10 10"></path>
<g>
<path d="M154 84h111"></path>
</g>
<path d="M265 84a10 10 0 0 0 10 -10v0a10 10 0 0 0 -10 -10"></path>
<path d="M144 64h10"></path>
<path d="M265 64h10"></path>
<g>
<path d="M154 64h0"></path>
<path d="M265 64h0"></path>
<path d="M208 64h10"></path>
<g class="non-terminal ">
<path d="M154 64h0"></path>
<path d="M208 64h0"></path>
<rect x="154" y="53" width="54" height="22"></rect>
<text x="181" y="68">stmt</text>
</g>
<path d="M218 64h10"></path>
<g class="non-terminal ">
<path d="M228 64h0"></path>
<path d="M265 64h0"></path>
<rect x="228" y="53" width="37" height="22"></rect>
<text x="246.5" y="68">ws</text>
</g>
</g>
</g>
<path d="M275 64h20"></path>
</g>
</g>
<g class="comment ">
<path d="M50 28h0"></path>
<path d="M123 28h0"></path>
<text x="86.5" y="33" class="comment">statement</text>
</g>
</g>
<path d="M305 64h10"></path>
<path d="M 315 64 h 20 m 0 -10 v 20"></path>
</g>
<style>
	svg {
		background-color: hsl(30,20%,95%);
	}
	path {
		stroke-width: 3;
		stroke: black;
		fill: rgba(0,0,0,0);
	}
	text {
		font: bold 14px monospace;
		text-anchor: middle;
		white-space: pre;
	}
	text.diagram-text {
		font-size: 12px;
	}
	text.diagram-arrow {
		font-size: 16px;
	}
	text.label {
		text-anchor: start;
	}
	text.comment {
		font: italic 12px monospace;
	}
	g.non-terminal text {
		/*font-style: italic;*/
	}
	rect {
		stroke-width: 3;
		stroke: black;
		fill: hsl(120,100%,90%);
	}
	rect.group-box {
		stroke: gray;
		stroke-dasharray: 10 5;
		fill: none;
	}
	path.diagram-text {
		stroke-width: 3;
		stroke: black;
		fill: white;
		cursor: help;
	}
	.decision path {
    fill: #ccc;
  }
	g.diagram-text:hover path.diagram-text {
		fill: #eee;
	}</style>
</svg>
