<svg class="railroad-diagram" width="512.5" height="94" viewBox="0 0 512.5 94" xmlns="http://www.w3.org/2000/svg" xmlns:xlink="http://www.w3.org/1999/xlink">
<g transform="translate(.5 .5)">
<g>
<path d="M20 45v20m0 -10h20"></path>
</g>
<path d="M40 55h10"></path>
<g>
<path d="M50 55h0"></path>
<path d="M462.5 55h0"></path>
<rect x="50" y="36" width="412.5" height="38" rx="10" ry="10" class="group-box"></rect>
<g>
<path d="M50 55h10"></path>
<path d="M452.5 55h10"></path>
<path d="M139.5 55h10"></path>
<g class="terminal ">
<path d="M60 55h0"></path>
<path d="M139.5 55h0"></path>
<rect x="60" y="44" width="79.5" height="22" rx="10" ry="10"></rect>
<text x="99.75" y="59">"while"</text>
</g>
<path d="M149.5 55h10"></path>
<path d="M196.5 55h10"></path>
<g class="non-terminal ">
<path d="M159.5 55h0"></path>
<path d="M196.5 55h0"></path>
<rect x="159.5" y="44" width="37" height="22"></rect>
<text x="178" y="59">WS</text>
</g>
<path d="M206.5 55h10"></path>
<path d="M313 55h10"></path>
<g class="non-terminal ">
<path d="M216.5 55h0"></path>
<path d="M313 55h0"></path>
<rect x="216.5" y="44" width="96.5" height="22"></rect>
<text x="264.75" y="59">condition</text>
</g>
<path d="M323 55h10"></path>
<path d="M370 55h10"></path>
<g class="non-terminal ">
<path d="M333 55h0"></path>
<path d="M370 55h0"></path>
<rect x="333" y="44" width="37" height="22"></rect>
<text x="351.5" y="59">ws</text>
</g>
<path d="M380 55h10"></path>
<g class="non-terminal ">
<path d="M390 55h0"></path>
<path d="M452.5 55h0"></path>
<rect x="390" y="44" width="62.5" height="22"></rect>
<text x="421.25" y="59">block</text>
</g>
</g>
<g class="comment ">
<path d="M50 28h0"></path>
<path d="M130 28h0"></path>
<text x="90" y="33" class="comment">while_stmt</text>
</g>
</g>
<path d="M462.5 55h10"></path>
<path d="M 472.5 55 h 20 m 0 -10 v 20"></path>
</g>
<style>
	svg {
		background-color: hsl(30,20%,95%);
	}
	path {
		stroke-width: 3;
		stroke: black;
		fill: rgba(0,0,0,0);
	}
	text {
		font: bold 14px monospace;
		text-anchor: middle;
		white-space: pre;
	}
	text.diagram-text {
		font-size: 12px;
	}
	text.diagram-arrow {
		font-size: 16px;
	}
	text.label {
		text-anchor: start;
	}
	text.comment {
		font: italic 12px monospace;
	}
	g.non-terminal text {
		/*font-style: italic;*/
	}
	rect {
		stroke-width: 3;
		stroke: black;
		fill: hsl(120,100%,90%);
	}
	rect.group-box {
		stroke: gray;
		stroke-dasharray: 10 5;
		fill: none;
	}
	path.diagram-text {
		stroke-width: 3;
		stroke: black;
		fill: white;
		cursor: help;
	}
	.decision path {
    fill: #ccc;
  }
	g.diagram-text:hover path.diagram-text {
		fill: #eee;
	}</style>
</svg>
